REM DIRINDEX 1\2,1\3
REM DIRNAME cjc039,folder01,folder02
TITLE ""
FILE "3421-3440.mp3" MP3
  TRACK 01 AUDIO
    TITLE "0:"
    INDEX 01 00:00:00
  TRACK 02 AUDIO
    TITLE "2:cjc039_5841"
    INDEX 01 00:00:25
  TRACK 03 AUDIO
    TITLE "0:"
    INDEX 01 00:01:40
  TRACK 04 AUDIO
    TITLE "3:cjc039_5842"
    INDEX 01 00:02:20
  TRACK 05 AUDIO
    TITLE "0:"
    INDEX 01 00:05:40
  TRACK 06 AUDIO
    TITLE "2:cjc039_5843"
    INDEX 01 00:07:17
  TRACK 07 AUDIO
    TITLE "0:"
    INDEX 01 00:08:48
  TRACK 08 AUDIO
    TITLE "3:cjc039_5844"
    INDEX 01 00:09:24
  TRACK 09 AUDIO
    TITLE "0:"
    INDEX 01 00:12:71
  TRACK 10 AUDIO
    TITLE "2:cjc039_5845"
    INDEX 01 00:14:45
  TRACK 11 AUDIO
    TITLE "0:"
    INDEX 01 00:15:70
  TRACK 12 AUDIO
    TITLE "3:cjc039_5846"
    INDEX 01 00:16:48
  TRACK 13 AUDIO
    TITLE "0:"
    INDEX 01 00:20:04
  TRACK 14 AUDIO
    TITLE "2:cjc039_5847"
    INDEX 01 00:21:58
  TRACK 15 AUDIO
    TITLE "0:"
    INDEX 01 00:23:12
  TRACK 16 AUDIO
    TITLE "3:cjc039_5848"
    INDEX 01 00:23:65
  TRACK 17 AUDIO
    TITLE "0:"
    INDEX 01 00:29:03
  TRACK 18 AUDIO
    TITLE "2:cjc039_5849"
    INDEX 01 00:30:57
  TRACK 19 AUDIO
    TITLE "0:"
    INDEX 01 00:31:55
  TRACK 20 AUDIO
    TITLE "3:cjc039_5850"
    INDEX 01 00:32:29
  TRACK 21 AUDIO
    TITLE "0:"
    INDEX 01 00:34:61
  TRACK 22 AUDIO
    TITLE "2:cjc039_5851"
    INDEX 01 00:36:38
  TRACK 23 AUDIO
    TITLE "0:"
    INDEX 01 00:37:59
  TRACK 24 AUDIO
    TITLE "3:cjc039_5852"
    INDEX 01 00:38:31
  TRACK 25 AUDIO
    TITLE "0:"
    INDEX 01 00:41:63
  TRACK 26 AUDIO
    TITLE "2:cjc039_5853"
    INDEX 01 00:43:40
  TRACK 27 AUDIO
    TITLE "0:"
    INDEX 01 00:44:40
  TRACK 28 AUDIO
    TITLE "3:cjc039_5854"
    INDEX 01 00:45:16
  TRACK 29 AUDIO
    TITLE "0:"
    INDEX 01 00:47:72
  TRACK 30 AUDIO
    TITLE "2:cjc039_5855"
    INDEX 01 00:49:51
  TRACK 31 AUDIO
    TITLE "0:"
    INDEX 01 00:51:07
  TRACK 32 AUDIO
    TITLE "3:cjc039_5856"
    INDEX 01 00:51:62
  TRACK 33 AUDIO
    TITLE "0:"
    INDEX 01 00:55:57
  TRACK 34 AUDIO
    TITLE "2:cjc039_5857"
    INDEX 01 00:57:29
  TRACK 35 AUDIO
    TITLE "0:"
    INDEX 01 00:58:26
  TRACK 36 AUDIO
    TITLE "3:cjc039_5858"
    INDEX 01 00:59:06
  TRACK 37 AUDIO
    TITLE "0:"
    INDEX 01 01:02:08
  TRACK 38 AUDIO
    TITLE "2:cjc039_5859"
    INDEX 01 01:03:59
  TRACK 39 AUDIO
    TITLE "0:"
    INDEX 01 01:05:38
  TRACK 40 AUDIO
    TITLE "3:cjc039_5860"
    INDEX 01 01:06:14
  TRACK 41 AUDIO
    TITLE "0:"
    INDEX 01 01:10:41
  TRACK 42 AUDIO
    TITLE "2:cjc039_5861"
    INDEX 01 01:12:17
  TRACK 43 AUDIO
    TITLE "0:"
    INDEX 01 01:13:22
  TRACK 44 AUDIO
    TITLE "3:cjc039_5862"
    INDEX 01 01:13:73
  TRACK 45 AUDIO
    TITLE "0:"
    INDEX 01 01:18:27
  TRACK 46 AUDIO
    TITLE "2:cjc039_5863"
    INDEX 01 01:20:04
  TRACK 47 AUDIO
    TITLE "0:"
    INDEX 01 01:21:43
  TRACK 48 AUDIO
    TITLE "3:cjc039_5864"
    INDEX 01 01:22:21
  TRACK 49 AUDIO
    TITLE "0:"
    INDEX 01 01:25:23
  TRACK 50 AUDIO
    TITLE "2:cjc039_5865"
    INDEX 01 01:26:74
  TRACK 51 AUDIO
    TITLE "0:"
    INDEX 01 01:27:67
  TRACK 52 AUDIO
    TITLE "3:cjc039_5866"
    INDEX 01 01:28:51
  TRACK 53 AUDIO
    TITLE "0:"
    INDEX 01 01:30:69
  TRACK 54 AUDIO
    TITLE "2:cjc039_5867"
    INDEX 01 01:32:45
  TRACK 55 AUDIO
    TITLE "0:"
    INDEX 01 01:34:01
  TRACK 56 AUDIO
    TITLE "3:cjc039_5868"
    INDEX 01 01:34:54
  TRACK 57 AUDIO
    TITLE "0:"
    INDEX 01 01:39:23
  TRACK 58 AUDIO
    TITLE "2:cjc039_5869"
    INDEX 01 01:41:01
  TRACK 59 AUDIO
    TITLE "0:"
    INDEX 01 01:42:16
  TRACK 60 AUDIO
    TITLE "3:cjc039_5870"
    INDEX 01 01:42:69
  TRACK 61 AUDIO
    TITLE "0:"
    INDEX 01 01:46:27
  TRACK 62 AUDIO
    TITLE "2:cjc039_5871"
    INDEX 01 01:48:07
  TRACK 63 AUDIO
    TITLE "0:"
    INDEX 01 01:49:51
  TRACK 64 AUDIO
    TITLE "3:cjc039_5872"
    INDEX 01 01:50:31
  TRACK 65 AUDIO
    TITLE "0:"
    INDEX 01 01:54:13
  TRACK 66 AUDIO
    TITLE "2:cjc039_5873"
    INDEX 01 01:55:65
  TRACK 67 AUDIO
    TITLE "0:"
    INDEX 01 01:57:04
  TRACK 68 AUDIO
    TITLE "3:cjc039_5874"
    INDEX 01 01:57:57
  TRACK 69 AUDIO
    TITLE "0:"
    INDEX 01 02:02:18
  TRACK 70 AUDIO
    TITLE "2:cjc039_5875"
    INDEX 01 02:03:71
  TRACK 71 AUDIO
    TITLE "0:"
    INDEX 01 02:05:38
  TRACK 72 AUDIO
    TITLE "3:cjc039_5876"
    INDEX 01 02:06:18
  TRACK 73 AUDIO
    TITLE "0:"
    INDEX 01 02:10:57
  TRACK 74 AUDIO
    TITLE "2:cjc039_5877"
    INDEX 01 02:12:31
  TRACK 75 AUDIO
    TITLE "0:"
    INDEX 01 02:13:34
  TRACK 76 AUDIO
    TITLE "3:cjc039_5878"
    INDEX 01 02:14:12
  TRACK 77 AUDIO
    TITLE "0:"
    INDEX 01 02:17:06
  TRACK 78 AUDIO
    TITLE "2:cjc039_5879"
    INDEX 01 02:18:55
  TRACK 79 AUDIO
    TITLE "0:"
    INDEX 01 02:20:20
  TRACK 80 AUDIO
    TITLE "3:cjc039_5880"
    INDEX 01 02:20:73
  TRACK 81 AUDIO
    TITLE "0:"
    INDEX 01 02:26:11
